HIERARCHY
ROOT Pelvis
{
	OFFSET 0.000000 0.000000 0.000000
	CHANNELS 6 Xposition Yposition Zposition Xrotation Yrotation Zrotation
	JOINT LeftUpLeg_virtual
	{
		OFFSET 0.000000 0.000000 0.000000
		CHANNELS 3 Xrotation Yrotation Zrotation
		JOINT LeftUpLeg
		{
			OFFSET 18.735201 -5.666702 -4.541200
			CHANNELS 3 Xrotation Yrotation Zrotation
			JOINT LeftLeg
			{
				OFFSET -0.021200 -31.938179 0.493100
				CHANNELS 3 Xrotation Yrotation Zrotation
				JOINT LeftFoot
				{
					OFFSET 0.021200 -31.938179 -4.336299
					CHANNELS 3 Xrotation Yrotation Zrotation
					JOINT LeftToeBase
					{
						OFFSET 0.943001 -26.722000 15.023500
						CHANNELS 3 Xrotation Yrotation Zrotation
						End Site
						{
							OFFSET 0 0 0
						}
					}
				}
			}
		}
	}
	JOINT RightUpLeg_virtual
	{
		OFFSET 0.000000 0.000000 0.000000
		CHANNELS 3 Xrotation Yrotation Zrotation
		JOINT RightUpLeg
		{
			OFFSET -18.735201 -5.666702 -4.541200
			CHANNELS 3 Xrotation Yrotation Zrotation
			JOINT RightLeg
			{
				OFFSET 0.018946 -31.938133 0.493100
				CHANNELS 3 Xrotation Yrotation Zrotation
				JOINT RightFoot
				{
					OFFSET -0.018946 -31.938126 -4.336299
					CHANNELS 3 Xrotation Yrotation Zrotation
					JOINT RightToeBase
					{
						OFFSET -0.943001 -26.722004 15.023500
						CHANNELS 3 Xrotation Yrotation Zrotation
						End Site
						{
							OFFSET 0 0 0
						}
					}
				}
			}
		}
	}
	JOINT Hips_virtual
	{
		OFFSET 0.000000 0.000000 0.000000
		CHANNELS 3 Xrotation Yrotation Zrotation
		JOINT Hips
		{
			OFFSET -0.000000 -0.000000 -0.000000
			CHANNELS 3 Xrotation Yrotation Zrotation
			JOINT Spine
			{
				OFFSET 0.000000 10.199997 -0.299500
				CHANNELS 3 Xrotation Yrotation Zrotation
				JOINT Spine1
				{
					OFFSET 0.000000 11.900002 -1.516600
					CHANNELS 3 Xrotation Yrotation Zrotation
					JOINT Spine2
					{
						OFFSET 0.000000 13.600006 -2.842500
						CHANNELS 3 Xrotation Yrotation Zrotation
						JOINT Neck_virtual
						{
							OFFSET 0.000000 0.000000 0.000000
							CHANNELS 3 Xrotation Yrotation Zrotation
							JOINT Neck
							{
								OFFSET 0.000000 9.624100 -2.890100
								CHANNELS 3 Xrotation Yrotation Zrotation
								JOINT Head
								{
									OFFSET 0.000000 14.068802 -1.351900
									CHANNELS 3 Xrotation Yrotation Zrotation
									End Site
									{
										OFFSET 0 0 0
									}
								}
							}
						}
						JOINT LeftShoulder_virtual
						{
							OFFSET 0.000000 0.000000 0.000000
							CHANNELS 3 Xrotation Yrotation Zrotation
							JOINT LeftShoulder
							{
								OFFSET 15.263000 10.923401 -0.547700
								CHANNELS 3 Xrotation Yrotation Zrotation
								JOINT LeftArm
								{
									OFFSET 25.438599 -2.830597 -13.032500
									CHANNELS 3 Xrotation Yrotation Zrotation
									JOINT LeftForeArm
									{
										OFFSET 29.960503 0.000000 0.000000
										CHANNELS 3 Xrotation Yrotation Zrotation
										JOINT LeftHand
										{
											OFFSET 27.849251 0.000000 0.000000
											CHANNELS 3 Xrotation Yrotation Zrotation
											End Site
											{
												OFFSET 0 0 0
											}
										}
									}
								}
							}
						}
						JOINT RightShoulder_virtual
						{
							OFFSET 0.000000 0.000000 0.000000
							CHANNELS 3 Xrotation Yrotation Zrotation
							JOINT RightShoulder
							{
								OFFSET -15.263000 10.923401 -0.547700
								CHANNELS 3 Xrotation Yrotation Zrotation
								JOINT RightArm
								{
									OFFSET -25.438599 -2.830597 -13.032500
									CHANNELS 3 Xrotation Yrotation Zrotation
									JOINT RightForeArm
									{
										OFFSET -29.960503 0.000000 0.000000
										CHANNELS 3 Xrotation Yrotation Zrotation
										JOINT RightHand
										{
											OFFSET -27.849251 0.000000 0.000000
											CHANNELS 3 Xrotation Yrotation Zrotation
											End Site
											{
												OFFSET 0 0 0
											}
										}
									}
								}
							}
						}
					}
				}
			}
		}
	}
}
MOTION
Frames: 10
Frame Time: 0.03333333
12.870682 57.454567 -38.052498 0.000000 0.000000 0.000000 50.385482 -31.073129 16.976186 -74.804566 -4.601292 -1.279854 101.392867 -4.519963 1.327136 18.379013 -8.301209 -12.700119 0.000000 0.000000 0.000000 50.385482 -31.073129 16.976186 -108.116943 -8.453377 -20.329930 115.157153 -10.262438 6.072054 -33.211703 -10.579919 6.748509 0.000000 0.000000 0.000000 50.385482 -31.073129 16.976186 -0.000003 -0.000000 0.000002 30.583033 11.012621 2.993549 6.852555 2.109582 1.261709 0.000000 0.000000 0.000000 6.827500 2.179072 1.278346 -3.359092 -1.794577 0.775536 0.000000 0.000000 0.000000 6.827500 2.179072 1.278346 5.608892 -23.469908 -9.113353 -29.183202 -12.430047 -40.885410 -0.000027 -37.552609 -0.000019 0.000000 0.000000 0.000000 6.827500 2.179072 1.278346 -0.559063 30.137189 14.434188 -44.135822 50.708711 11.921781 0.000001 9.608859 -0.000003 0.000000 0.000000 0.000000 
12.963732 57.889381 -37.720665 0.000000 0.000000 0.000000 49.508660 -32.172363 17.019609 -78.374672 -5.425197 -0.263728 103.555155 -4.011459 0.541201 21.251334 -7.684892 -11.169110 0.000000 0.000000 0.000000 49.508660 -32.172363 17.019609 -106.271740 -8.455127 -19.817043 114.256887 -9.978235 6.044719 -33.276159 -10.524580 6.837741 0.000000 0.000000 0.000000 49.508660 -32.172363 17.019609 0.000000 0.000000 0.000000 30.636814 10.822030 2.503606 6.860041 2.066868 1.129950 0.000000 0.000000 0.000000 6.835851 2.135326 1.146306 -3.189859 -1.671020 0.619272 0.000000 0.000000 0.000000 6.835851 2.135326 1.146306 5.673067 -23.734083 -9.066826 -27.862333 -10.438775 -41.186461 -0.000002 -38.893457 -0.000002 0.000000 0.000000 0.000000 6.835851 2.135326 1.146306 -0.454830 29.350989 14.140368 -42.011920 48.862729 12.344910 -0.000003 14.620230 -0.000018 0.000000 0.000000 0.000000 
13.033815 58.289818 -37.168030 0.000000 0.000000 0.000000 48.624356 -33.276764 17.076883 -81.728097 -6.665580 0.655423 105.308806 -3.985937 0.044300 24.028467 -6.635244 -11.012572 0.000000 0.000000 0.000000 48.624356 -33.276764 17.076883 -104.117081 -7.999329 -19.600821 113.390648 -9.370284 6.069949 -33.292548 -10.559624 7.557321 0.000000 0.000000 0.000000 48.624356 -33.276764 17.076883 -0.000001 0.000003 -0.000002 30.789663 10.752016 1.863041 6.900521 2.048715 0.955042 0.000000 0.000000 0.000000 6.876935 2.117279 0.970890 -3.034439 -1.518666 0.434628 0.000000 0.000000 0.000000 6.876935 2.117279 0.970890 5.697506 -23.899185 -8.949573 -27.065938 -8.692573 -41.259848 -0.000006 -40.071593 -0.000012 0.000000 0.000000 0.000000 6.876935 2.117279 0.970890 -0.244508 28.311470 13.397238 -39.815895 48.075246 12.700970 -0.000001 18.268902 0.000008 0.000000 0.000000 0.000000 
13.057072 58.818108 -36.360100 0.000000 0.000000 0.000000 47.474896 -34.425578 17.207231 -84.491277 -8.013537 0.756876 106.565479 -4.843015 0.470566 25.958790 -5.970611 -13.016634 0.000000 0.000000 0.000000 47.474896 -34.425578 17.207231 -101.379350 -7.306833 -19.318236 112.385326 -8.640702 6.011944 -33.615835 -10.821815 8.319935 0.000000 0.000000 0.000000 47.474896 -34.425578 17.207231 -0.000002 0.000000 0.000000 31.255629 10.714471 0.952067 6.973906 2.045115 0.742948 0.000000 0.000000 0.000000 6.951638 2.112849 0.758487 -2.860256 -1.333395 0.196567 0.000000 0.000000 0.000000 6.951638 2.112849 0.758487 5.880274 -24.606299 -8.861683 -26.458066 -6.906709 -40.061566 -0.000017 -41.627431 -0.000006 0.000000 0.000000 0.000000 6.951638 2.112849 0.758487 0.069426 27.515620 12.075459 -38.169132 47.324564 12.915032 -0.000006 21.820976 0.000012 0.000000 0.000000 0.000000 
12.921593 59.696892 -35.306190 0.000000 0.000000 0.000000 46.381871 -35.475852 17.376802 -87.843869 -9.448661 0.633239 108.101684 -5.954849 1.341804 26.744417 -4.925986 -14.829326 0.000000 0.000000 0.000000 46.381871 -35.475852 17.376802 -97.854256 -6.709725 -18.747636 110.659610 -7.669053 5.977540 -34.231788 -11.589465 8.903338 0.000000 0.000000 0.000000 46.381871 -35.475852 17.376802 0.000002 -0.000002 0.000002 31.730802 10.647746 -0.066387 7.073825 2.060564 0.500875 0.000000 0.000000 0.000000 7.052996 2.127535 0.515826 -2.678358 -1.129804 -0.040479 0.000000 0.000000 0.000000 7.052996 2.127535 0.515826 6.184836 -25.737514 -8.719599 -25.567732 -5.399178 -37.802905 0.000001 -43.339285 0.000006 0.000000 0.000000 0.000000 7.052996 2.127535 0.515826 0.371333 27.275252 10.690511 -37.139147 46.241938 12.993751 -0.000006 25.612274 0.000020 0.000000 0.000000 0.000000 
12.713634 60.764336 -34.042816 0.000000 0.000000 0.000000 45.741845 -35.990674 17.484851 -92.098496 -11.646676 2.018906 109.397706 -6.295831 1.630457 27.694050 -3.778675 -14.552609 0.000000 0.000000 0.000000 45.741845 -35.990674 17.484851 -94.087789 -6.349056 -18.192827 108.383703 -6.619690 6.134543 -35.253284 -12.638743 9.038886 0.000000 0.000000 0.000000 45.741845 -35.990674 17.484851 0.000000 0.000000 -0.000002 31.840812 10.474295 -0.784452 7.064875 2.055942 0.350508 0.000000 0.000000 0.000000 7.044996 2.121779 0.364709 -2.560029 -0.931849 -0.200509 0.000000 0.000000 0.000000 7.044996 2.121779 0.364709 6.320867 -26.347269 -8.474964 -25.121702 -4.615674 -35.775394 -0.000015 -44.098884 -0.000007 0.000000 0.000000 0.000000 7.044996 2.121779 0.364709 0.673115 27.111014 9.277725 -37.002003 45.385586 13.518105 -0.000003 29.168412 0.000025 0.000000 0.000000 0.000000 
12.658293 61.818275 -32.501919 0.000000 0.000000 0.000000 45.083084 -35.726886 17.396502 -95.250888 -14.538707 4.326660 109.275035 -6.299560 2.054774 28.766954 -2.874158 -15.145656 0.000000 0.000000 0.000000 45.083084 -35.726886 17.396502 -90.221950 -5.873453 -18.229985 105.955960 -5.452284 5.964303 -36.343771 -14.193125 9.664257 0.000000 0.000000 0.000000 45.083084 -35.726886 17.396502 0.000003 -0.000000 -0.000001 31.911815 10.129398 -1.043520 7.073545 1.986075 0.274283 0.000000 0.000000 0.000000 7.054840 2.050719 0.287682 -2.521565 -0.768535 -0.309683 0.000000 0.000000 0.000000 7.054840 2.050719 0.287682 6.400829 -26.926901 -8.002631 -25.440593 -4.122254 -33.844697 -0.000001 -44.237875 -0.000005 0.000000 0.000000 0.000000 7.054840 2.050719 0.287682 1.114123 26.227851 7.102850 -38.539496 45.299727 15.508737 -0.000002 31.555563 -0.000004 0.000000 0.000000 0.000000 
12.530228 63.209747 -30.871971 0.000000 0.000000 0.000000 44.294859 -34.964821 17.637041 -97.345038 -16.506465 6.762278 108.165130 -5.926910 2.510205 27.934968 -2.751705 -15.587504 0.000000 0.000000 0.000000 44.294859 -34.964821 17.637041 -86.026103 -5.278147 -18.765870 103.006827 -4.437996 5.800635 -37.520852 -15.604935 10.189849 0.000000 0.000000 0.000000 44.294859 -34.964821 17.637041 -0.000001 0.000000 0.000000 32.148396 9.383666 -1.356666 7.122097 1.856556 0.180068 0.000000 0.000000 0.000000 7.105024 1.920577 0.192174 -2.579349 -0.653126 -0.383552 0.000000 0.000000 0.000000 7.105024 1.920577 0.192174 6.331477 -27.109446 -7.424407 -25.780228 -3.936423 -32.172319 0.000002 -48.299789 0.000006 0.000000 0.000000 0.000000 7.105024 1.920577 0.192174 1.543946 24.220629 4.532001 -41.870921 46.375393 19.274445 0.000001 32.369195 0.000011 0.000000 0.000000 0.000000 
12.265978 64.892876 -29.175186 0.000000 0.000000 0.000000 43.439686 -34.164951 18.211627 -98.219719 -17.428942 9.673891 106.326812 -5.507070 2.761536 25.270100 -2.656192 -17.000561 0.000000 0.000000 0.000000 43.439686 -34.164951 18.211627 -81.706555 -4.969381 -19.302384 99.543956 -3.822886 5.602935 -38.786308 -16.788130 9.901811 0.000000 0.000000 0.000000 43.439686 -34.164951 18.211627 -0.000003 0.000000 -0.000001 32.604734 8.385503 -1.858257 7.223291 1.702764 0.044375 0.000000 0.000000 0.000000 7.207908 1.767252 0.055250 -2.689734 -0.584974 -0.389811 0.000000 0.000000 0.000000 7.207908 1.767252 0.055250 6.116702 -26.917596 -6.710622 -26.724614 -4.807675 -30.121565 0.000015 -48.893373 0.000006 0.000000 0.000000 0.000000 7.207908 1.767252 0.055250 1.837422 21.955991 2.108150 -45.741237 48.074232 23.218885 0.000001 31.953640 0.000009 0.000000 0.000000 0.000000 
11.792070 66.863365 -27.387833 0.000000 0.000000 0.000000 42.445732 -33.233149 18.947419 -98.796699 -17.677687 12.314040 103.699736 -4.587593 2.907534 21.530252 -2.332566 -18.618571 0.000000 0.000000 0.000000 42.445732 -33.233149 18.947419 -76.988718 -4.865712 -19.760019 95.469686 -3.613906 5.353792 -39.997250 -17.990368 9.286942 0.000000 0.000000 0.000000 42.445732 -33.233149 18.947419 0.000003 -0.000002 0.000001 33.329882 7.285287 -2.202314 7.392460 1.529263 -0.061378 0.000000 0.000000 0.000000 7.379231 1.591010 -0.051590 -2.890191 -0.536388 -0.428557 0.000000 0.000000 0.000000 7.379231 1.591010 -0.051590 5.860322 -26.473970 -6.120318 -28.190890 -6.989867 -27.844123 -0.000014 -47.969873 -0.000025 0.000000 0.000000 0.000000 7.379231 1.591010 -0.051590 2.069823 19.411896 -0.755496 -49.654505 48.527975 27.312115 -0.000013 33.323707 -0.000004 0.000000 0.000000 0.000000 
